G04 #@! TF.FileFunction,Soldermask,Bot*
%FSLAX46Y46*%
G04 Gerber Fmt 4.6, Leading zero omitted, Abs format (unit mm)*
G04 Created by KiCad (PCBNEW 4.0.7) date 03/20/20 09:01:08*
%MOMM*%
%LPD*%
G01*
G04 APERTURE LIST*
%ADD10C,0.100000*%
%ADD11C,1.924000*%
%ADD12O,2.400000X2.400000*%
%ADD13O,2.900000X3.900000*%
%ADD14O,3.900000X2.900000*%
%ADD15R,2.000000X2.000000*%
%ADD16C,2.000000*%
%ADD17O,2.000000X2.000000*%
%ADD18R,2.400000X2.400000*%
%ADD19C,2.400000*%
%ADD20R,2.600000X2.600000*%
%ADD21O,2.600000X2.600000*%
%ADD22R,3.900000X3.900000*%
%ADD23R,2.100000X2.100000*%
%ADD24O,2.100000X2.100000*%
%ADD25O,3.900000X2.400000*%
%ADD26O,2.400000X4.400000*%
%ADD27C,1.400000*%
%ADD28C,5.400000*%
%ADD29R,1.400000X1.400000*%
%ADD30O,3.900000X3.900000*%
%ADD31R,2.200000X2.200000*%
%ADD32O,2.200000X2.200000*%
%ADD33C,1.920000*%
%ADD34C,3.100000*%
G04 APERTURE END LIST*
D10*
D11*
X137922000Y-75946000D03*
X137922000Y-78486000D03*
X137922000Y-81026000D03*
X137922000Y-83566000D03*
X137922000Y-86106000D03*
X137922000Y-88646000D03*
X137922000Y-91186000D03*
X137922000Y-93726000D03*
X137922000Y-96266000D03*
X137922000Y-98806000D03*
X137922000Y-101346000D03*
X137922000Y-103886000D03*
X137922000Y-106426000D03*
X137922000Y-108966000D03*
X137922000Y-111506000D03*
X137922000Y-114046000D03*
X137922000Y-116586000D03*
X137922000Y-119126000D03*
X137922000Y-121666000D03*
X137922000Y-124206000D03*
X153162000Y-75946000D03*
X153162000Y-78486000D03*
X153162000Y-81026000D03*
X153162000Y-83566000D03*
X153162000Y-86106000D03*
X153162000Y-88646000D03*
X153162000Y-91186000D03*
X153162000Y-93726000D03*
X153162000Y-96266000D03*
X153162000Y-98806000D03*
X153162000Y-101346000D03*
X153162000Y-103886000D03*
X153162000Y-106426000D03*
X153162000Y-108966000D03*
X153162000Y-111506000D03*
X153162000Y-114046000D03*
X153162000Y-116586000D03*
X153162000Y-119126000D03*
X153162000Y-121666000D03*
X153162000Y-124206000D03*
D12*
X113200000Y-78400000D03*
X113200000Y-69400000D03*
D13*
X116700000Y-73900000D03*
D14*
X121700000Y-73900000D03*
D15*
X155200000Y-66200000D03*
D16*
X155200000Y-63700000D03*
X125425000Y-126700000D03*
X125425000Y-129200000D03*
X122275000Y-126025000D03*
D17*
X114655000Y-126025000D03*
D16*
X159000000Y-91000000D03*
X161500000Y-91000000D03*
X165862000Y-135382000D03*
X168362000Y-135382000D03*
D15*
X172974000Y-133350000D03*
D16*
X175474000Y-133350000D03*
D15*
X167000000Y-89000000D03*
D16*
X169500000Y-89000000D03*
X119888000Y-122428000D03*
X119888000Y-119928000D03*
D15*
X154800000Y-144600000D03*
D16*
X152300000Y-144600000D03*
D18*
X115062000Y-136652000D03*
D19*
X120062000Y-136652000D03*
D15*
X125775000Y-101200000D03*
D16*
X125775000Y-98700000D03*
X128300000Y-84875000D03*
X123300000Y-84875000D03*
D20*
X120925000Y-98150000D03*
D21*
X113305000Y-98150000D03*
D22*
X164000000Y-139000000D03*
X164000000Y-145000000D03*
X168700000Y-142000000D03*
D23*
X157226000Y-134874000D03*
D24*
X157226000Y-137414000D03*
X157226000Y-139954000D03*
D25*
X171506000Y-84350000D03*
X171506000Y-70650000D03*
D15*
X168656000Y-76200000D03*
D16*
X168656000Y-78800000D03*
X168656000Y-74100000D03*
X168656000Y-80900000D03*
X165856000Y-74100000D03*
X165856000Y-80900000D03*
D26*
X172306000Y-77500000D03*
D16*
X159766000Y-72390000D03*
D17*
X159766000Y-64770000D03*
D16*
X162814000Y-65532000D03*
D17*
X170434000Y-65532000D03*
D16*
X114600000Y-129200000D03*
D17*
X122220000Y-129200000D03*
D16*
X131850000Y-111500000D03*
D17*
X124230000Y-111500000D03*
D16*
X133750000Y-73800000D03*
D17*
X126130000Y-73800000D03*
D16*
X133600000Y-77050000D03*
D17*
X125980000Y-77050000D03*
D16*
X121000000Y-84850000D03*
D17*
X113380000Y-84850000D03*
D16*
X123300000Y-81575000D03*
D17*
X130920000Y-81575000D03*
D16*
X113400000Y-81675000D03*
D17*
X121020000Y-81675000D03*
D27*
X176200000Y-125700000D03*
X176200000Y-117700000D03*
X176325000Y-106550000D03*
X176325000Y-98550000D03*
D15*
X132000000Y-115450000D03*
D17*
X124380000Y-123070000D03*
X129460000Y-115450000D03*
X126920000Y-123070000D03*
X126920000Y-115450000D03*
X129460000Y-123070000D03*
X124380000Y-115450000D03*
X132000000Y-123070000D03*
D28*
X114000000Y-64000000D03*
X114000000Y-147000000D03*
X176000000Y-147000000D03*
X176000000Y-64000000D03*
D19*
X115000000Y-111325000D03*
X115000000Y-102325000D03*
D27*
X119755000Y-103555000D03*
X121025000Y-102285000D03*
D29*
X121025000Y-104825000D03*
D27*
X121220000Y-113670000D03*
X119950000Y-114940000D03*
D29*
X119950000Y-112400000D03*
D27*
X132842000Y-91948000D03*
X134112000Y-93218000D03*
D29*
X131572000Y-93218000D03*
D16*
X115000000Y-115600000D03*
D17*
X115000000Y-123220000D03*
D16*
X124450000Y-104950000D03*
D17*
X132070000Y-104950000D03*
D16*
X124450000Y-108225000D03*
D17*
X132070000Y-108225000D03*
D30*
X132965000Y-129865000D03*
D31*
X130425000Y-146525000D03*
D32*
X132965000Y-146525000D03*
X135505000Y-146525000D03*
D30*
X145340000Y-129940000D03*
D31*
X142800000Y-146600000D03*
D32*
X145340000Y-146600000D03*
X147880000Y-146600000D03*
D16*
X171825000Y-137775000D03*
X174325000Y-137775000D03*
X124968000Y-63246000D03*
D17*
X124968000Y-70866000D03*
D16*
X155350000Y-69700000D03*
X152850000Y-69700000D03*
D33*
X136090000Y-68900000D03*
X133550000Y-68900000D03*
X133550000Y-66900000D03*
X136090000Y-66900000D03*
D34*
X140820000Y-64200000D03*
X128820000Y-64200000D03*
D16*
X144272000Y-64262000D03*
D17*
X144272000Y-71882000D03*
D16*
X147574000Y-64262000D03*
D17*
X147574000Y-71882000D03*
D16*
X133604000Y-81788000D03*
X133604000Y-84288000D03*
X120000000Y-91140000D03*
X125000000Y-91140000D03*
D27*
X114230000Y-92890000D03*
X115500000Y-91620000D03*
D29*
X115500000Y-94160000D03*
D16*
X123698000Y-88138000D03*
D17*
X131318000Y-88138000D03*
D16*
X113792000Y-88138000D03*
D17*
X121412000Y-88138000D03*
D16*
X119500000Y-94270000D03*
D17*
X127120000Y-94270000D03*
D16*
X131950000Y-97925000D03*
X131950000Y-100425000D03*
D23*
X159004000Y-106680000D03*
D24*
X159004000Y-109220000D03*
X159004000Y-111760000D03*
X159004000Y-114300000D03*
D16*
X157988000Y-122936000D03*
D17*
X157988000Y-130556000D03*
D16*
X162814000Y-131572000D03*
D17*
X170434000Y-131572000D03*
D16*
X161036000Y-122174000D03*
D17*
X161036000Y-129794000D03*
M02*
