M48
;DRILL file {KiCad 4.0.7} date 03/20/20 09:01:10
;FORMAT={-:-/ absolute / metric / decimal}
FMAT,2
METRIC,TZ
T1C0.400
T2C0.600
T3C0.762
T4C0.800
T5C0.810
T6C1.000
T7C1.100
T8C1.500
T9C2.300
T10C3.048
%
G90
G05
M71
T1
X111.45Y-98.7
X111.525Y-69.65
X111.675Y-67.025
X111.7Y-87.375
X111.7Y-120.25
X111.725Y-90.325
X111.75Y-135.35
X111.76Y-117.602
X111.76Y-131.826
X111.8Y-113.95
X111.85Y-80.275
X111.85Y-81.95
X111.85Y-93.125
X111.85Y-123.45
X111.85Y-127.1
X111.875Y-84.425
X111.9Y-73.35
X112.014Y-72.136
X112.014Y-110.744
X112.014Y-138.684
X112.014Y-141.224
X112.064Y-95.554
X112.268Y-102.87
X112.268Y-107.442
X112.268Y-143.764
X113.284Y-89.662
X113.375Y-75.1
X115.375Y-76.8
X115.375Y-78.825
X115.824Y-89.662
X116.586Y-88.9
X116.84Y-100.584
X117.196Y-61.859
X117.602Y-71.374
X117.675Y-149.125
X118.11Y-88.9
X118.872Y-69.088
X119.126Y-66.294
X119.126Y-75.946
X119.2Y-61.5
X119.634Y-89.154
X119.8Y-149.2
X119.888Y-64.262
X121.158Y-89.916
X121.85Y-61.65
X122.125Y-149.3
X122.428Y-76.962
X122.428Y-89.916
X122.428Y-100.584
X123.19Y-91.44
X123.444Y-93.726
X123.952Y-94.996
X123.952Y-97.028
X123.952Y-99.06
X124.206Y-137.16
X124.46Y-78.74
X124.575Y-149.45
X124.9Y-61.55
X125.222Y-85.09
X125.222Y-89.408
X125.984Y-81.28
X126.238Y-90.17
X126.746Y-87.63
X126.9Y-149.5
X127.25Y-61.6
X127.254Y-138.684
X127.508Y-131.826
X127.762Y-91.186
X128.778Y-92.202
X129.032Y-134.112
X129.286Y-90.678
X129.794Y-139.7
X129.875Y-149.4
X130.Y-61.6
X130.048Y-93.218
X130.048Y-136.144
X130.302Y-94.996
X130.302Y-99.822
X130.556Y-96.774
X131.064Y-90.932
X131.826Y-138.176
X132.375Y-149.2
X132.588Y-141.224
X133.096Y-143.764
X133.15Y-61.65
X133.35Y-90.932
X133.858Y-107.696
X134.112Y-105.918
X134.366Y-102.108
X135.375Y-149.175
X135.382Y-97.028
X135.382Y-101.092
X135.636Y-90.678
X135.636Y-99.314
X135.9Y-61.55
X136.144Y-91.948
X136.144Y-94.742
X136.144Y-142.494
X137.55Y-149.175
X138.176Y-130.556
X138.938Y-144.272
X138.95Y-61.45
X139.446Y-134.874
X139.825Y-149.275
X140.462Y-125.476
X140.462Y-137.922
X141.732Y-143.002
X141.8Y-61.5
X142.125Y-149.375
X143.51Y-125.222
X144.25Y-61.55
X144.35Y-149.325
X145.034Y-92.456
X145.288Y-83.82
X145.542Y-88.392
X145.796Y-96.774
X146.05Y-107.188
X146.05Y-111.506
X146.304Y-102.108
X146.812Y-119.38
X147.075Y-149.125
X147.45Y-61.6
X147.574Y-115.316
X147.574Y-123.19
X147.828Y-79.756
X148.336Y-75.184
X149.85Y-102.5
X150.05Y-149.15
X150.114Y-72.136
X150.45Y-67.45
X151.325Y-62.025
X152.75Y-149.175
X154.35Y-149.175
X154.575Y-61.7
X156.718Y-107.188
X156.718Y-113.03
X156.9Y-149.025
X157.226Y-103.124
X157.734Y-116.586
X157.938Y-61.826
X159.575Y-149.1
X160.175Y-119.975
X161.1Y-62.05
X162.45Y-97.875
X162.725Y-149.125
X163.4Y-61.9
X163.775Y-123.95
X164.2Y-100.475
X164.225Y-104.975
X164.25Y-118.375
X164.325Y-110.1
X164.525Y-115.4
X165.75Y-149.375
X165.95Y-61.8
X166.65Y-117.05
X167.225Y-121.725
X167.325Y-124.1
X167.375Y-104.95
X167.55Y-119.15
X167.85Y-102.65
X168.45Y-61.95
X169.375Y-119.2
X170.15Y-148.55
X171.05Y-62.05
X172.35Y-148.3
X172.825Y-63.2
X177.546Y-86.106
X177.8Y-74.168
X177.8Y-76.962
X177.8Y-83.058
X177.8Y-117.348
X177.8Y-142.748
X178.017Y-135.875
X178.054Y-68.326
X178.054Y-79.502
X178.054Y-89.408
X178.054Y-91.44
X178.054Y-96.266
X178.054Y-99.06
X178.054Y-101.6
X178.054Y-104.394
X178.054Y-106.934
X178.054Y-109.982
X178.054Y-113.03
X178.054Y-120.142
X178.054Y-125.73
X178.054Y-128.778
X178.054Y-137.414
X178.1Y-71.125
X178.196Y-132.425
X178.196Y-139.3
X178.208Y-122.582
X178.308Y-93.726
T2
X114.23Y-92.89
X115.5Y-91.62
X115.5Y-94.16
X119.755Y-103.555
X119.95Y-112.4
X119.95Y-114.94
X121.025Y-102.285
X121.025Y-104.825
X121.22Y-113.67
X131.572Y-93.218
X132.842Y-91.948
X134.112Y-93.218
T3
X137.922Y-75.946
X137.922Y-78.486
X137.922Y-81.026
X137.922Y-83.566
X137.922Y-86.106
X137.922Y-88.646
X137.922Y-91.186
X137.922Y-93.726
X137.922Y-96.266
X137.922Y-98.806
X137.922Y-101.346
X137.922Y-103.886
X137.922Y-106.426
X137.922Y-108.966
X137.922Y-111.506
X137.922Y-114.046
X137.922Y-116.586
X137.922Y-119.126
X137.922Y-121.666
X137.922Y-124.206
X153.162Y-75.946
X153.162Y-78.486
X153.162Y-81.026
X153.162Y-83.566
X153.162Y-86.106
X153.162Y-88.646
X153.162Y-91.186
X153.162Y-93.726
X153.162Y-96.266
X153.162Y-98.806
X153.162Y-101.346
X153.162Y-103.886
X153.162Y-106.426
X153.162Y-108.966
X153.162Y-111.506
X153.162Y-114.046
X153.162Y-116.586
X153.162Y-119.126
X153.162Y-121.666
X153.162Y-124.206
T4
X113.38Y-84.85
X113.4Y-81.675
X113.792Y-88.138
X114.6Y-129.2
X114.655Y-126.025
X115.Y-115.6
X115.Y-123.22
X119.5Y-94.27
X119.888Y-119.928
X119.888Y-122.428
X120.Y-91.14
X121.Y-84.85
X121.02Y-81.675
X121.412Y-88.138
X122.22Y-129.2
X122.275Y-126.025
X123.3Y-81.575
X123.3Y-84.875
X123.698Y-88.138
X124.23Y-111.5
X124.38Y-115.45
X124.38Y-123.07
X124.45Y-104.95
X124.45Y-108.225
X124.968Y-63.246
X124.968Y-70.866
X125.Y-91.14
X125.425Y-126.7
X125.425Y-129.2
X125.775Y-98.7
X125.775Y-101.2
X125.98Y-77.05
X126.13Y-73.8
X126.92Y-115.45
X126.92Y-123.07
X127.12Y-94.27
X128.3Y-84.875
X129.46Y-115.45
X129.46Y-123.07
X130.92Y-81.575
X131.318Y-88.138
X131.85Y-111.5
X131.95Y-97.925
X131.95Y-100.425
X132.Y-115.45
X132.Y-123.07
X132.07Y-104.95
X132.07Y-108.225
X133.6Y-77.05
X133.604Y-81.788
X133.604Y-84.288
X133.75Y-73.8
X144.272Y-64.262
X144.272Y-71.882
X147.574Y-64.262
X147.574Y-71.882
X152.3Y-144.6
X152.85Y-69.7
X154.8Y-144.6
X155.2Y-63.7
X155.2Y-66.2
X155.35Y-69.7
X157.988Y-122.936
X157.988Y-130.556
X159.Y-91.
X159.766Y-64.77
X159.766Y-72.39
X161.036Y-122.174
X161.036Y-129.794
X161.5Y-91.
X162.814Y-65.532
X162.814Y-131.572
X165.856Y-74.1
X165.856Y-80.9
X165.862Y-135.382
X167.Y-89.
X168.362Y-135.382
X168.656Y-74.1
X168.656Y-76.2
X168.656Y-78.8
X168.656Y-80.9
X169.5Y-89.
X170.434Y-65.532
X170.434Y-131.572
X171.825Y-137.775
X172.974Y-133.35
X174.325Y-137.775
X175.474Y-133.35
T5
X133.55Y-66.9
X133.55Y-68.9
X136.09Y-66.9
X136.09Y-68.9
T6
X115.Y-102.325
X115.Y-111.325
X115.062Y-136.652
X120.062Y-136.652
X130.425Y-146.525
X132.965Y-146.525
X135.505Y-146.525
X142.8Y-146.6
X145.34Y-146.6
X147.88Y-146.6
X157.226Y-134.874
X157.226Y-137.414
X157.226Y-139.954
X159.004Y-106.68
X159.004Y-109.22
X159.004Y-111.76
X159.004Y-114.3
T7
X113.305Y-98.15
X120.925Y-98.15
T9
X128.82Y-64.2
X140.82Y-64.2
T10
X114.Y-64.
X114.Y-147.
X176.Y-64.
X176.Y-147.
T6
X163.Y-139.G85X165.Y-139.
G05
X163.Y-145.G85X165.Y-145.
G05
X168.7Y-143.G85X168.7Y-141.
G05
X170.756Y-70.65G85X172.256Y-70.65
G05
X170.756Y-84.35G85X172.256Y-84.35
G05
X172.306Y-78.5G85X172.306Y-76.5
G05
T8
X116.7Y-74.4G85X116.7Y-73.4
G05
X121.2Y-73.9G85X122.2Y-73.9
G05
T0
M30
