G04 #@! TF.FileFunction,Soldermask,Top*
%FSLAX46Y46*%
G04 Gerber Fmt 4.6, Leading zero omitted, Abs format (unit mm)*
G04 Created by KiCad (PCBNEW 4.0.7) date 06/21/23 21:39:12*
%MOMM*%
%LPD*%
G01*
G04 APERTURE LIST*
%ADD10C,0.100000*%
%ADD11C,1.920000*%
%ADD12R,1.920000X1.920000*%
%ADD13C,1.924000*%
%ADD14O,2.400000X2.400000*%
%ADD15O,2.900000X3.900000*%
%ADD16O,3.900000X2.900000*%
%ADD17R,2.000000X2.000000*%
%ADD18C,2.000000*%
%ADD19O,2.000000X2.000000*%
%ADD20R,2.400000X2.400000*%
%ADD21C,2.400000*%
%ADD22R,2.600000X2.600000*%
%ADD23O,2.600000X2.600000*%
%ADD24R,3.900000X3.900000*%
%ADD25R,2.100000X2.100000*%
%ADD26O,2.100000X2.100000*%
%ADD27O,3.900000X2.400000*%
%ADD28O,2.400000X4.400000*%
%ADD29R,2.000000X1.100000*%
%ADD30R,1.800000X1.600000*%
%ADD31R,1.800000X2.000000*%
%ADD32R,2.600000X1.600000*%
%ADD33C,1.400000*%
%ADD34C,5.400000*%
%ADD35O,3.900000X3.900000*%
%ADD36R,2.200000X2.200000*%
%ADD37O,2.200000X2.200000*%
%ADD38C,3.100000*%
G04 APERTURE END LIST*
D10*
D11*
X120620000Y-107520000D03*
X120620000Y-104980000D03*
D12*
X120620000Y-110060000D03*
D13*
X137922000Y-75946000D03*
X137922000Y-78486000D03*
X137922000Y-81026000D03*
X137922000Y-83566000D03*
X137922000Y-86106000D03*
X137922000Y-88646000D03*
X137922000Y-91186000D03*
X137922000Y-93726000D03*
X137922000Y-96266000D03*
X137922000Y-98806000D03*
X137922000Y-101346000D03*
X137922000Y-103886000D03*
X137922000Y-106426000D03*
X137922000Y-108966000D03*
X137922000Y-111506000D03*
X137922000Y-114046000D03*
X137922000Y-116586000D03*
X137922000Y-119126000D03*
X137922000Y-121666000D03*
X137922000Y-124206000D03*
X153162000Y-75946000D03*
X153162000Y-78486000D03*
X153162000Y-81026000D03*
X153162000Y-83566000D03*
X153162000Y-86106000D03*
X153162000Y-88646000D03*
X153162000Y-91186000D03*
X153162000Y-93726000D03*
X153162000Y-96266000D03*
X153162000Y-98806000D03*
X153162000Y-101346000D03*
X153162000Y-103886000D03*
X153162000Y-106426000D03*
X153162000Y-108966000D03*
X153162000Y-111506000D03*
X153162000Y-114046000D03*
X153162000Y-116586000D03*
X153162000Y-119126000D03*
X153162000Y-121666000D03*
X153162000Y-124206000D03*
D14*
X113210000Y-78090000D03*
X113210000Y-69090000D03*
D15*
X116710000Y-73590000D03*
D16*
X121710000Y-73590000D03*
D17*
X155200000Y-66200000D03*
D18*
X155200000Y-63700000D03*
X125425000Y-126700000D03*
X125425000Y-129200000D03*
X122275000Y-126025000D03*
D19*
X114655000Y-126025000D03*
D18*
X159000000Y-91000000D03*
X161500000Y-91000000D03*
X165862000Y-135382000D03*
X168362000Y-135382000D03*
D17*
X172974000Y-133350000D03*
D18*
X175474000Y-133350000D03*
D17*
X167000000Y-89000000D03*
D18*
X169500000Y-89000000D03*
X119888000Y-122682000D03*
X119888000Y-120182000D03*
D17*
X154800000Y-144600000D03*
D18*
X152300000Y-144600000D03*
D20*
X115062000Y-136652000D03*
D21*
X120062000Y-136652000D03*
D17*
X125775000Y-101200000D03*
D18*
X125775000Y-98700000D03*
X129830000Y-84250000D03*
X124830000Y-84250000D03*
D22*
X121010000Y-99470000D03*
D23*
X113390000Y-99470000D03*
D24*
X164000000Y-139000000D03*
X164000000Y-145000000D03*
X168700000Y-142000000D03*
D25*
X157226000Y-134874000D03*
D26*
X157226000Y-137414000D03*
X157226000Y-139954000D03*
D27*
X171506000Y-84350000D03*
X171506000Y-70650000D03*
D17*
X168656000Y-76200000D03*
D18*
X168656000Y-78800000D03*
X168656000Y-74100000D03*
X168656000Y-80900000D03*
X165856000Y-74100000D03*
X165856000Y-80900000D03*
D28*
X172306000Y-77500000D03*
D18*
X159766000Y-72390000D03*
D19*
X159766000Y-64770000D03*
D18*
X162814000Y-65532000D03*
D19*
X170434000Y-65532000D03*
D18*
X114600000Y-129200000D03*
D19*
X122220000Y-129200000D03*
D18*
X131850000Y-111500000D03*
D19*
X124230000Y-111500000D03*
D18*
X133750000Y-73800000D03*
D19*
X126130000Y-73800000D03*
D18*
X133600000Y-77050000D03*
D19*
X125980000Y-77050000D03*
D18*
X121570000Y-84170000D03*
D19*
X113950000Y-84170000D03*
D18*
X123790000Y-80930000D03*
D19*
X131410000Y-80930000D03*
D18*
X114020000Y-80910000D03*
D19*
X121640000Y-80910000D03*
D29*
X165700000Y-126200000D03*
X165700000Y-125100000D03*
X165700000Y-124000000D03*
X165700000Y-122900000D03*
X165700000Y-121800000D03*
X165700000Y-120700000D03*
X165700000Y-119600000D03*
X165700000Y-118500000D03*
D30*
X166300000Y-128500000D03*
D31*
X166300000Y-113900000D03*
D32*
X175900000Y-113000000D03*
X175800000Y-128500000D03*
D29*
X165700000Y-127300000D03*
D33*
X176200000Y-125700000D03*
X176200000Y-117700000D03*
D29*
X165825000Y-107050000D03*
X165825000Y-105950000D03*
X165825000Y-104850000D03*
X165825000Y-103750000D03*
X165825000Y-102650000D03*
X165825000Y-101550000D03*
X165825000Y-100450000D03*
X165825000Y-99350000D03*
D30*
X166425000Y-109350000D03*
D31*
X166425000Y-94750000D03*
D32*
X176025000Y-93850000D03*
X175925000Y-109350000D03*
D29*
X165825000Y-108150000D03*
D33*
X176325000Y-106550000D03*
X176325000Y-98550000D03*
D17*
X132000000Y-115450000D03*
D19*
X124380000Y-123070000D03*
X129460000Y-115450000D03*
X126920000Y-123070000D03*
X126920000Y-115450000D03*
X129460000Y-123070000D03*
X124380000Y-115450000D03*
X132000000Y-123070000D03*
D34*
X114000000Y-64000000D03*
X114000000Y-147000000D03*
X176000000Y-147000000D03*
X176000000Y-64000000D03*
D21*
X114300000Y-111506000D03*
X114300000Y-102506000D03*
D18*
X115000000Y-115600000D03*
D19*
X115000000Y-123220000D03*
D18*
X124450000Y-104950000D03*
D19*
X132070000Y-104950000D03*
D18*
X124450000Y-108225000D03*
D19*
X132070000Y-108225000D03*
D35*
X132965000Y-129865000D03*
D36*
X130425000Y-146525000D03*
D37*
X132965000Y-146525000D03*
X135505000Y-146525000D03*
D35*
X145340000Y-129940000D03*
D36*
X142800000Y-146600000D03*
D37*
X145340000Y-146600000D03*
X147880000Y-146600000D03*
D18*
X171825000Y-137775000D03*
X174325000Y-137775000D03*
X124968000Y-63246000D03*
D19*
X124968000Y-70866000D03*
D18*
X155350000Y-69700000D03*
X152850000Y-69700000D03*
D11*
X136090000Y-68900000D03*
X133550000Y-68900000D03*
X133550000Y-66900000D03*
X136090000Y-66900000D03*
D38*
X140820000Y-64200000D03*
X128820000Y-64200000D03*
D18*
X144272000Y-64262000D03*
D19*
X144272000Y-71882000D03*
D18*
X147574000Y-64262000D03*
D19*
X147574000Y-71882000D03*
D18*
X134360000Y-80510000D03*
X134360000Y-83010000D03*
X120000000Y-91140000D03*
X125000000Y-91140000D03*
X123698000Y-88138000D03*
D19*
X131318000Y-88138000D03*
D18*
X113792000Y-88138000D03*
D19*
X121412000Y-88138000D03*
D18*
X119500000Y-94270000D03*
D19*
X127120000Y-94270000D03*
D18*
X131950000Y-97925000D03*
X131950000Y-100425000D03*
D25*
X159004000Y-106680000D03*
D26*
X159004000Y-109220000D03*
X159004000Y-111760000D03*
X159004000Y-114300000D03*
D18*
X157988000Y-122936000D03*
D19*
X157988000Y-130556000D03*
D18*
X162814000Y-131572000D03*
D19*
X170434000Y-131572000D03*
D18*
X161036000Y-122174000D03*
D19*
X161036000Y-129794000D03*
D11*
X119950000Y-114940000D03*
X119950000Y-117480000D03*
D12*
X119950000Y-112400000D03*
D11*
X132260000Y-93570000D03*
X134800000Y-93570000D03*
D12*
X129720000Y-93570000D03*
D11*
X116240000Y-93910000D03*
X116240000Y-91370000D03*
D12*
X116240000Y-96450000D03*
M02*
