M48
;DRILL file {KiCad 4.0.7} date 06/21/23 21:39:14
;FORMAT={-:-/ absolute / inch / decimal}
FMAT,2
INCH,TZ
T1C0.016
T2C0.030
T3C0.031
T4C0.032
T5C0.039
T6C0.043
T7C0.059
T8C0.091
T9C0.120
%
G90
G05
M72
T1
X4.3878Y-3.8858
X4.3907Y-2.7421
X4.3967Y-2.6388
X4.3976Y-3.44
X4.3976Y-4.7343
X4.3986Y-3.5561
X4.3996Y-5.3287
X4.4Y-4.06
X4.4Y-4.23
X4.4Y-4.63
X4.4Y-5.19
X4.4016Y-4.4862
X4.4035Y-3.1604
X4.4035Y-3.2264
X4.4035Y-3.6663
X4.4035Y-4.8602
X4.4035Y-5.0039
X4.4045Y-3.3238
X4.4055Y-2.8878
X4.41Y-2.84
X4.41Y-4.36
X4.41Y-5.46
X4.41Y-5.56
X4.412Y-3.762
X4.42Y-5.66
X4.46Y-3.53
X4.4636Y-2.9567
X4.5423Y-3.0236
X4.5449Y-3.0791
X4.56Y-3.53
X4.59Y-3.5
X4.614Y-2.4354
X4.6185Y-4.0118
X4.63Y-2.81
X4.6329Y-5.8711
X4.65Y-3.5
X4.68Y-2.72
X4.69Y-2.61
X4.69Y-2.99
X4.6929Y-2.4213
X4.71Y-3.51
X4.7165Y-5.874
X4.72Y-2.53
X4.77Y-3.54
X4.7972Y-2.4272
X4.8081Y-5.878
X4.82Y-3.03
X4.82Y-3.54
X4.85Y-3.6
X4.86Y-3.69
X4.8657Y-4.013
X4.88Y-3.74
X4.88Y-3.82
X4.88Y-3.9
X4.8823Y-3.0634
X4.89Y-5.4
X4.9045Y-5.8839
X4.9173Y-2.4232
X4.93Y-3.52
X4.96Y-3.2
X4.97Y-3.55
X4.9862Y-3.6248
X4.9961Y-5.8858
X5.0047Y-3.7114
X5.0071Y-3.4535
X5.0098Y-2.4252
X5.01Y-5.46
X5.0102Y-3.335
X5.02Y-5.19
X5.08Y-5.28
X5.09Y-3.57
X5.11Y-5.5
X5.1132Y-5.8819
X5.1181Y-2.4252
X5.12Y-5.36
X5.16Y-3.58
X5.19Y-5.44
X5.2116Y-5.874
X5.22Y-5.56
X5.24Y-5.66
X5.2421Y-2.4272
X5.25Y-3.58
X5.27Y-4.24
X5.28Y-4.17
X5.29Y-4.02
X5.3297Y-5.873
X5.33Y-3.82
X5.33Y-3.98
X5.34Y-3.57
X5.34Y-3.91
X5.3504Y-2.4232
X5.36Y-3.62
X5.36Y-3.73
X5.36Y-5.61
X5.4154Y-5.873
X5.44Y-5.14
X5.47Y-5.68
X5.4705Y-2.4193
X5.49Y-5.31
X5.5049Y-5.877
X5.53Y-4.94
X5.53Y-5.43
X5.58Y-5.63
X5.5827Y-2.4213
X5.5955Y-5.8809
X5.65Y-4.93
X5.6791Y-2.4232
X5.6831Y-5.8789
X5.71Y-3.64
X5.72Y-3.3
X5.73Y-3.48
X5.74Y-3.81
X5.75Y-4.22
X5.75Y-4.39
X5.76Y-4.02
X5.78Y-4.7
X5.7904Y-5.8711
X5.8051Y-2.4252
X5.81Y-4.54
X5.81Y-4.85
X5.82Y-3.14
X5.84Y-2.96
X5.8996Y-4.0354
X5.9075Y-5.872
X5.91Y-2.84
X5.9232Y-2.6555
X5.9577Y-2.4419
X6.0138Y-5.873
X6.0768Y-5.873
X6.0856Y-2.4291
X6.17Y-4.22
X6.17Y-4.45
X6.1772Y-5.8671
X6.19Y-4.06
X6.21Y-4.59
X6.218Y-2.4341
X6.2825Y-5.8701
X6.3061Y-4.7234
X6.3425Y-2.4429
X6.3957Y-3.8533
X6.4065Y-5.8711
X6.4331Y-2.437
X6.4478Y-4.8799
X6.4646Y-3.9557
X6.4656Y-4.1329
X6.4665Y-4.6604
X6.4695Y-4.3346
X6.4774Y-4.5433
X6.5256Y-5.8809
X6.5335Y-2.4331
X6.561Y-4.6083
X6.5837Y-4.7923
X6.5876Y-4.8858
X6.5896Y-4.1319
X6.5965Y-4.6909
X6.6083Y-4.0413
X6.6319Y-2.439
X6.6683Y-4.6929
X6.6988Y-5.8484
X6.7343Y-2.4429
X6.7854Y-5.8386
X6.8041Y-2.4882
X6.99Y-3.39
X7.Y-2.92
X7.Y-3.03
X7.Y-3.27
X7.Y-4.62
X7.Y-5.62
X7.0085Y-5.3494
X7.01Y-2.69
X7.01Y-3.13
X7.01Y-3.52
X7.01Y-3.6
X7.01Y-3.79
X7.01Y-3.9
X7.01Y-4.
X7.01Y-4.11
X7.01Y-4.21
X7.01Y-4.33
X7.01Y-4.45
X7.01Y-4.73
X7.01Y-4.95
X7.01Y-5.07
X7.01Y-5.41
X7.0118Y-2.8002
X7.0156Y-5.2136
X7.0156Y-5.4843
X7.0161Y-4.8261
X7.02Y-3.69
T2
X5.43Y-2.99
X5.43Y-3.09
X5.43Y-3.19
X5.43Y-3.29
X5.43Y-3.39
X5.43Y-3.49
X5.43Y-3.59
X5.43Y-3.69
X5.43Y-3.79
X5.43Y-3.89
X5.43Y-3.99
X5.43Y-4.09
X5.43Y-4.19
X5.43Y-4.29
X5.43Y-4.39
X5.43Y-4.49
X5.43Y-4.59
X5.43Y-4.69
X5.43Y-4.79
X5.43Y-4.89
X6.03Y-2.99
X6.03Y-3.09
X6.03Y-3.19
X6.03Y-3.29
X6.03Y-3.39
X6.03Y-3.49
X6.03Y-3.59
X6.03Y-3.69
X6.03Y-3.79
X6.03Y-3.89
X6.03Y-3.99
X6.03Y-4.09
X6.03Y-4.19
X6.03Y-4.29
X6.03Y-4.39
X6.03Y-4.49
X6.03Y-4.59
X6.03Y-4.69
X6.03Y-4.79
X6.03Y-4.89
T3
X4.48Y-3.47
X4.4862Y-3.3138
X4.489Y-3.1854
X4.5118Y-5.0866
X4.514Y-4.9616
X4.5276Y-4.5512
X4.5276Y-4.8512
X4.5764Y-3.5972
X4.5764Y-3.6972
X4.5764Y-3.7972
X4.7047Y-3.7114
X4.72Y-4.7316
X4.72Y-4.83
X4.7224Y-4.4252
X4.7224Y-4.5252
X4.7224Y-4.6252
X4.7244Y-3.5882
X4.7488Y-4.1331
X4.7488Y-4.2331
X4.7488Y-4.3331
X4.78Y-3.47
X4.7862Y-3.3138
X4.789Y-3.1854
X4.8118Y-5.0866
X4.814Y-4.9616
X4.87Y-3.47
X4.8736Y-3.1862
X4.8909Y-4.3898
X4.8969Y-4.5453
X4.8969Y-4.8453
X4.8996Y-4.1319
X4.8996Y-4.2608
X4.9146Y-3.3169
X4.92Y-2.49
X4.92Y-2.79
X4.9213Y-3.5882
X4.938Y-4.9882
X4.938Y-5.0866
X4.9518Y-3.8858
X4.9518Y-3.9843
X4.9598Y-3.0335
X4.9657Y-2.9055
X4.9969Y-4.5453
X4.9969Y-4.8453
X5.0047Y-3.7114
X5.0969Y-4.5453
X5.0969Y-4.8453
X5.1071Y-3.6839
X5.1114Y-3.3169
X5.17Y-3.47
X5.1736Y-3.1862
X5.1909Y-4.3898
X5.1949Y-3.8553
X5.1949Y-3.9537
X5.1969Y-4.5453
X5.1969Y-4.8453
X5.1996Y-4.1319
X5.1996Y-4.2608
X5.2071Y-3.6839
X5.2598Y-3.0335
X5.2657Y-2.9055
X5.2898Y-3.1697
X5.2898Y-3.2681
X5.3071Y-3.6839
X5.68Y-2.53
X5.68Y-2.83
X5.81Y-2.53
X5.81Y-2.83
X5.9961Y-5.6929
X6.0177Y-2.7441
X6.0945Y-5.6929
X6.1102Y-2.5079
X6.1102Y-2.6063
X6.1161Y-2.7441
X6.22Y-4.84
X6.22Y-5.14
X6.2598Y-3.5827
X6.29Y-2.55
X6.29Y-2.85
X6.34Y-4.81
X6.34Y-5.11
X6.3583Y-3.5827
X6.41Y-2.58
X6.41Y-5.18
X6.5298Y-2.9173
X6.5298Y-3.185
X6.53Y-5.33
X6.5748Y-3.5039
X6.6284Y-5.33
X6.64Y-2.9173
X6.64Y-3.
X6.64Y-3.1024
X6.64Y-3.185
X6.6732Y-3.5039
X6.71Y-2.58
X6.71Y-5.18
X6.7648Y-5.4242
X6.81Y-5.25
X6.8632Y-5.4242
X6.9084Y-5.25
T4
X5.2579Y-2.6339
X5.2579Y-2.7126
X5.3579Y-2.6339
X5.3579Y-2.7126
T5
X4.5Y-4.0357
X4.5Y-4.39
X4.53Y-5.38
X4.7269Y-5.38
X5.1348Y-5.7687
X5.2348Y-5.7687
X5.3348Y-5.7687
X5.622Y-5.7717
X5.722Y-5.7717
X5.822Y-5.7717
X6.19Y-5.31
X6.19Y-5.41
X6.19Y-5.51
X6.26Y-4.2
X6.26Y-4.3
X6.26Y-4.4
X6.26Y-4.5
T6
X4.4642Y-3.9161
X4.7642Y-3.9161
T8
X5.0717Y-2.5276
X5.5441Y-2.5276
T9
X4.4882Y-2.5197
X4.4882Y-5.7874
X6.9291Y-2.5197
X6.9291Y-5.7874
T5
X6.4173Y-5.4724G85X6.4961Y-5.4724
G05
X6.4173Y-5.7087G85X6.4961Y-5.7087
G05
X6.6417Y-5.6299G85X6.6417Y-5.5512
G05
X6.7227Y-2.7815G85X6.7817Y-2.7815
G05
X6.7227Y-3.3209G85X6.7817Y-3.3209
G05
X6.7837Y-3.0906G85X6.7837Y-3.0118
G05
T7
X4.5949Y-2.9169G85X4.5949Y-2.8776
G05
X4.772Y-2.8972G85X4.8114Y-2.8972
G05
T0
M30
